<?xml version="1.0" encoding="UTF-8" standalone="no"?>
<!-- Created with Inkscape (http://www.inkscape.org/) -->

<svg
   width="248.439mm"
   height="30.25046mm"
   viewBox="0 0 248.439 30.25046"
   version="1.1"
   id="svg1"
   xml:space="preserve"
   inkscape:version="1.4.3 (0d15f75, 2025-12-25)"
   sodipodi:docname="DPC.svg"
   xmlns:inkscape="http://www.inkscape.org/namespaces/inkscape"
   xmlns:sodipodi="http://sodipodi.sourceforge.net/DTD/sodipodi-0.dtd"
   xmlns="http://www.w3.org/2000/svg"
   xmlns:svg="http://www.w3.org/2000/svg"><sodipodi:namedview
     id="namedview1"
     pagecolor="#ffffff"
     bordercolor="#000000"
     borderopacity="0.25"
     inkscape:showpageshadow="2"
     inkscape:pageopacity="0.0"
     inkscape:pagecheckerboard="0"
     inkscape:deskcolor="#d1d1d1"
     inkscape:document-units="mm"
     showguides="false"
     inkscape:zoom="0.5"
     inkscape:cx="132"
     inkscape:cy="689"
     inkscape:window-width="1920"
     inkscape:window-height="1051"
     inkscape:window-x="-9"
     inkscape:window-y="-9"
     inkscape:window-maximized="1"
     inkscape:current-layer="layer1"
     inkscape:export-bgcolor="#ffffff00"><inkscape:page
       x="0"
       y="2.5240002e-22"
       width="248.439"
       height="30.250462"
       id="page2"
       margin="0"
       bleed="0" /></sodipodi:namedview><defs
     id="defs1"><rect
       x="312.63452"
       y="582.14703"
       width="249.29909"
       height="129.36601"
       id="rect63" /></defs><g
     inkscape:label="Layer 1"
     inkscape:groupmode="layer"
     id="layer1"
     transform="translate(-25.780497,-107.03604)"><rect
       style="fill:#ffffff;stroke-width:4.19692"
       id="rect60"
       width="266.70001"
       height="44.449997"
       x="16.649998"
       y="99.936279" /><g
       id="g61"
       transform="translate(-6.4074157,96.308333)"
       style="fill:#000000"><rect
         style="fill:#000000;stroke:#cf0306;stroke-width:0"
         id="rect61"
         width="10.111997"
         height="10.111997"
         x="270.51492"
         y="10.727722" /><path
         id="path61"
         style="fill:#000000;stroke:#cf0306;stroke-width:0"
         d="m 240.30755,20.839745 v 20.138421 h 1.98648 0.47643 10.78784 3.30087 3.04394 9.75583 0.85584 V 20.839745 Z m 23.07777,3.383183 c 0.98509,0 1.87285,0.170512 2.66336,0.511036 0.80266,0.340523 1.53831,0.857399 2.20719,1.550608 l -1.80592,1.787633 c -0.40133,-0.401331 -0.87568,-0.711298 -1.42295,-0.930205 -0.5351,-0.218909 -1.08838,-0.328496 -1.65997,-0.328496 -1.22832,0 -2.20114,0.370893 -2.91867,1.112748 -0.70538,0.729694 -1.05826,1.727048 -1.05826,2.991851 0,0.814824 0.15823,1.532477 0.47444,2.152716 0.3162,0.62024 0.76601,1.100322 1.34977,1.440845 0.58376,0.340524 1.25888,0.511036 2.02506,0.511036 1.20399,0 2.16495,-0.310363 2.88248,-0.930603 v -1.951881 h -3.46629 v -2.389742 h 6.00199 v 5.691794 c -0.64456,0.693208 -1.44153,1.228083 -2.39014,1.605092 -0.93644,0.364847 -1.9698,0.547226 -3.10082,0.547226 -1.34993,0 -2.53579,-0.273569 -3.55737,-0.820839 -1.00941,-0.547271 -1.79372,-1.325451 -2.35315,-2.334861 -0.54728,-1.00941 -0.82125,-2.183012 -0.82125,-3.520783 0,-1.301288 0.29197,-2.456891 0.87573,-3.4663 0.58375,-1.021571 1.39873,-1.812016 2.44463,-2.371448 1.05805,-0.571594 2.26805,-0.857427 3.63014,-0.857427 z m -15.82065,0.109762 c 1.66613,0 2.96119,0.34023 3.88546,1.021278 0.92429,0.668886 1.3925,1.605315 1.40465,2.809309 h -2.97315 c -0.0365,-0.413493 -0.26179,-0.735723 -0.67528,-0.966794 -0.4135,-0.243231 -0.95451,-0.364685 -1.62339,-0.364685 -0.70537,0 -1.27704,0.176248 -1.71486,0.528933 -0.43782,0.340524 -0.65659,0.790341 -0.65659,1.349773 v 1.276995 c 0.38916,-0.304039 0.86351,-0.53508 1.42295,-0.693181 0.55943,-0.170262 1.15523,-0.255319 1.78763,-0.255319 0.92428,0 1.73925,0.170513 2.44462,0.511038 0.71754,0.340523 1.27081,0.826736 1.65998,1.459138 0.38918,0.620239 0.58382,1.337892 0.58382,2.152716 0,0.86347 -0.23144,1.623653 -0.69358,2.280377 -0.44998,0.656724 -1.08831,1.167467 -1.9153,1.532315 -0.81482,0.352684 -1.76352,0.528931 -2.8459,0.528931 -1.09453,0 -2.06122,-0.176247 -2.90037,-0.528931 -0.82699,-0.352686 -1.46532,-0.857297 -1.9153,-1.514021 -0.44998,-0.656725 -0.67529,-1.416906 -0.67529,-2.280377 v -4.505871 c 0,-0.863471 0.22531,-1.623652 0.67529,-2.280376 0.44998,-0.656725 1.08218,-1.161336 1.897,-1.514021 0.81482,-0.364847 1.75739,-0.547227 2.82761,-0.547227 z m 0.0728,7.059464 c -0.74186,0 -1.33767,0.16438 -1.78764,0.492742 -0.43782,0.316201 -0.6566,0.741886 -0.6566,1.276995 0,0.535109 0.21878,0.960795 0.6566,1.276995 0.44997,0.316201 1.04578,0.474052 1.78764,0.474052 0.72968,0 1.31976,-0.157851 1.76974,-0.474052 0.44997,-0.328362 0.67488,-0.754048 0.67488,-1.276995 0,-0.522947 -0.22491,-0.948632 -0.67488,-1.276995 -0.44998,-0.328362 -1.04006,-0.492742 -1.76974,-0.492742 z" /><text
         xml:space="preserve"
         transform="matrix(4.4704551,0,0,4.4704551,-2280.5004,-2588.8831)"
         id="text61"
         style="font-size:6.15409px;line-height:1.2;font-family:'Dela Gothic One';-inkscape-font-specification:'Dela Gothic One';text-align:end;letter-spacing:0.990223px;word-spacing:5px;writing-mode:lr-tb;direction:ltr;white-space:pre;shape-inside:url(#rect63);fill:#000000;stroke:#cf0306;stroke-width:0"
         x="124.64954"
         y="0"><tspan
           x="517.37034"
           y="588.17749"
           id="tspan2"><tspan
             style="font-weight:900;font-family:Nexa;-inkscape-font-specification:'Nexa Heavy'"
             id="tspan1">ASTRALINK</tspan></tspan></text></g></g></svg>
